<svg width="302" height="38" viewBox="0 0 302 38" fill="none" xmlns="http://www.w3.org/2000/svg">
<path d="M9.56281 26H2.54281V12.06H9.60281C14.3428 12.06 17.1028 14.62 17.1028 19.14C17.1028 23.58 14.4228 26 9.56281 26ZM5.70281 14.64V23.42H8.96281C10.5428 23.42 13.9228 23.08 13.9228 19.06C13.9228 15.6 11.5828 14.64 9.22281 14.64H5.70281ZM30.33 26H18.91V12.06H30.33V14.34H22.03V17.82H29.67V20.14H22.03V23.72H30.33V26ZM39.1884 26.3C34.3484 26.3 32.4284 24.56 31.5084 22.04L34.5884 21.42C35.2884 23.12 37.0084 23.94 39.2084 23.94C41.1884 23.94 42.2084 23.34 42.2084 22.14C42.2084 21.02 41.1684 20.66 38.5084 20.22C35.4884 19.74 32.5884 19.16 32.5884 15.94C32.5884 13.3 34.8484 11.76 38.3684 11.76C41.0484 11.76 42.9684 12.48 44.6484 14.12L42.5884 15.82C41.5284 14.74 39.9084 14.12 38.1484 14.12C36.5884 14.12 35.7284 14.66 35.7284 15.64C35.7284 16.62 36.7084 16.96 39.2884 17.42C41.8084 17.88 45.3284 18.52 45.3284 21.84C45.3284 24.46 43.4284 26.3 39.1884 26.3ZM50.2536 26H47.0936V12.06H50.2536V26ZM64.6814 20.7H61.0814V18.46H67.8414V26H65.5414L65.3614 24.46C64.2614 25.78 62.4014 26.3 60.2014 26.3C55.0014 26.3 52.0214 23.34 52.0214 19.14C52.0214 14.6 55.2414 11.76 60.3614 11.76C63.8614 11.76 66.5414 13.12 67.8414 15.8L64.8814 16.72C64.0814 14.98 62.7414 14.12 60.3214 14.12C56.7814 14.12 55.1414 16 55.1414 19.06C55.1414 21.96 56.8014 23.94 60.4014 23.94C63.6414 23.94 64.6614 22.48 64.6814 20.7ZM80.2652 21.4V12.06H83.4052V26H80.4652L73.0652 16.62V26H69.9452V12.06H72.8652L80.2652 21.4ZM97.1464 26H85.7264V12.06H97.1464V14.34H88.8464V17.82H96.4864V20.14H88.8464V23.72H97.1464V26ZM106.184 26H99.1639V12.06H106.224C110.964 12.06 113.724 14.62 113.724 19.14C113.724 23.58 111.044 26 106.184 26ZM102.324 14.64V23.42H105.584C107.164 23.42 110.544 23.08 110.544 19.06C110.544 15.6 108.204 14.64 105.844 14.64H102.324ZM130.604 26H121.684V12.06H129.924C132.784 12.06 134.544 13.38 134.544 15.56C134.544 16.82 134.024 17.9 133.024 18.48C134.524 19 135.304 20.2 135.304 21.92C135.304 24.46 133.524 26 130.604 26ZM124.844 14.34V17.7H129.684C130.764 17.7 131.364 17.1 131.364 16.02C131.364 14.94 130.744 14.34 129.604 14.34H124.844ZM124.844 19.94V23.72H130.044C131.404 23.72 132.124 23.02 132.124 21.76C132.124 20.56 131.444 19.94 130.164 19.94H124.844ZM144.359 26H141.239V20.36L134.819 12.06H138.639L142.739 18.04L146.899 12.06H150.679L144.359 20.36V26Z" fill="white"/>
<path d="M173.288 11.7559L183.064 28.1173H163.512L173.288 11.7559Z" fill="white"/>
<path d="M189.522 20.125L181.504 6.90269L197.541 6.90269L189.522 20.125Z" fill="white"/>
<path d="M286.148 18.487C286.148 16.9738 286.489 15.6418 287.171 14.4909C287.875 13.34 288.823 12.4449 290.017 11.8055C291.21 11.1448 292.564 10.8145 294.077 10.8145C295.59 10.8145 296.933 11.1448 298.105 11.8055C299.298 12.4449 300.247 13.34 300.95 14.4909C301.653 15.6418 302.005 16.9738 302.005 18.487C302.005 19.9789 301.653 21.3109 300.95 22.4831C300.247 23.634 299.298 24.5398 298.105 25.2005C296.933 25.8399 295.59 26.1595 294.077 26.1595C292.564 26.1595 291.21 25.8399 290.017 25.2005C288.823 24.5398 287.875 23.634 287.171 22.4831C286.489 21.3109 286.148 19.9789 286.148 18.487ZM289.697 18.487C289.697 19.4034 289.889 20.2133 290.272 20.9166C290.656 21.5986 291.178 22.1421 291.839 22.5471C292.5 22.9307 293.246 23.1225 294.077 23.1225C294.887 23.1225 295.622 22.9307 296.283 22.5471C296.965 22.1421 297.497 21.5986 297.881 20.9166C298.265 20.2133 298.456 19.4034 298.456 18.487C298.456 17.5706 298.265 16.7607 297.881 16.0574C297.497 15.354 296.965 14.8106 296.283 14.4269C295.622 14.0433 294.887 13.8515 294.077 13.8515C293.246 13.8515 292.5 14.0433 291.839 14.4269C291.178 14.8106 290.656 15.354 290.272 16.0574C289.889 16.7607 289.697 17.5706 289.697 18.487Z" fill="white"/>
<path d="M270.32 11.1348H274.093L277.929 20.6295L281.765 11.1348H285.57L277.929 27.1832L270.32 11.1348Z" fill="white"/>
<path d="M253.898 18.487C253.898 16.9738 254.239 15.6418 254.921 14.4909C255.625 13.34 256.573 12.4449 257.767 11.8055C258.96 11.1448 260.314 10.8145 261.827 10.8145C263.34 10.8145 264.683 11.1448 265.855 11.8055C267.048 12.4449 267.997 13.34 268.7 14.4909C269.403 15.6418 269.755 16.9738 269.755 18.487C269.755 19.9789 269.403 21.3109 268.7 22.4831C267.997 23.634 267.048 24.5398 265.855 25.2005C264.683 25.8399 263.34 26.1595 261.827 26.1595C260.314 26.1595 258.96 25.8399 257.767 25.2005C256.573 24.5398 255.625 23.634 254.921 22.4831C254.239 21.3109 253.898 19.9789 253.898 18.487ZM257.447 18.487C257.447 19.4034 257.639 20.2133 258.022 20.9166C258.406 21.5986 258.928 22.1421 259.589 22.5471C260.25 22.9307 260.996 23.1225 261.827 23.1225C262.637 23.1225 263.372 22.9307 264.033 22.5471C264.715 22.1421 265.247 21.5986 265.631 20.9166C266.015 20.2133 266.206 19.4034 266.206 18.487C266.206 17.5706 266.015 16.7607 265.631 16.0574C265.247 15.354 264.715 14.8106 264.033 14.4269C263.372 14.0433 262.637 13.8515 261.827 13.8515C260.996 13.8515 260.25 14.0433 259.589 14.4269C258.928 14.8106 258.406 15.354 258.022 16.0574C257.639 16.7607 257.447 17.5706 257.447 18.487Z" fill="white"/>
<path d="M247.057 16.8886C247.057 15.8016 246.833 14.9811 246.385 14.4269C245.938 13.8728 245.245 13.5958 244.307 13.5958C243.668 13.5958 243.103 13.7343 242.613 14.0113C242.123 14.2671 241.739 14.6507 241.462 15.1622C241.185 15.6524 241.046 16.2279 241.046 16.8886V25.8399H237.594V11.1341H241.046V13.4039C241.515 12.5301 242.112 11.8801 242.837 11.4538C243.583 11.0276 244.467 10.8145 245.49 10.8145C247.152 10.8145 248.421 11.326 249.294 12.349C250.168 13.3507 250.605 14.736 250.605 16.5049V25.8399H247.057V16.8886Z" fill="white"/>
<path d="M224.702 21.0125C225.17 21.5241 225.639 21.9716 226.108 22.3552C226.598 22.7176 227.089 22.9946 227.579 23.1864C228.069 23.3569 228.559 23.4422 229.049 23.4422C229.667 23.4422 230.147 23.3037 230.488 23.0266C230.85 22.7495 231.031 22.3659 231.031 21.8757C231.031 21.4495 230.893 21.0871 230.616 20.7888C230.339 20.4691 229.955 20.2027 229.465 19.9895C228.975 19.7551 228.399 19.5207 227.739 19.2862C227.078 19.0305 226.417 18.7321 225.757 18.3911C225.117 18.0288 224.584 17.5599 224.158 16.9845C223.753 16.409 223.551 15.6844 223.551 14.8106C223.551 13.9154 223.774 13.1695 224.222 12.5727C224.691 11.976 225.309 11.5391 226.076 11.262C226.865 10.9636 227.707 10.8145 228.602 10.8145C229.412 10.8145 230.168 10.9317 230.872 11.1661C231.596 11.4006 232.246 11.7096 232.822 12.0932C233.397 12.4768 233.887 12.9137 234.292 13.4039L232.374 15.45C231.884 14.8745 231.298 14.4056 230.616 14.0433C229.934 13.681 229.23 13.4998 228.506 13.4998C228.016 13.4998 227.611 13.6064 227.291 13.8195C226.971 14.0327 226.811 14.3417 226.811 14.7466C226.811 15.0876 226.95 15.3967 227.227 15.6737C227.525 15.9295 227.909 16.1639 228.378 16.377C228.868 16.5902 229.412 16.814 230.008 17.0484C230.818 17.3681 231.564 17.7197 232.246 18.1034C232.928 18.487 233.472 18.9559 233.877 19.51C234.303 20.0641 234.516 20.7888 234.516 21.6839C234.516 23.0692 234.036 24.1881 233.077 25.0406C232.14 25.8718 230.861 26.2874 229.241 26.2874C228.239 26.2874 227.312 26.1382 226.46 25.8399C225.629 25.5202 224.893 25.1152 224.254 24.625C223.636 24.1135 223.114 23.5807 222.688 23.0266L224.702 21.0125Z" fill="white"/>
<path d="M204.906 18.487C204.906 16.9738 205.247 15.6418 205.929 14.4909C206.633 13.34 207.581 12.4449 208.774 11.8055C209.968 11.1448 211.321 10.8145 212.835 10.8145C214.348 10.8145 215.69 11.1448 216.863 11.8055C218.056 12.4449 219.005 13.34 219.708 14.4909C220.411 15.6418 220.763 16.9738 220.763 18.487C220.763 19.9789 220.411 21.3109 219.708 22.4831C219.005 23.634 218.056 24.5398 216.863 25.2005C215.69 25.8399 214.348 26.1595 212.835 26.1595C211.321 26.1595 209.968 25.8399 208.774 25.2005C207.581 24.5398 206.633 23.634 205.929 22.4831C205.247 21.3109 204.906 19.9789 204.906 18.487ZM208.455 18.487C208.455 19.4034 208.647 20.2133 209.03 20.9166C209.414 21.5986 209.936 22.1421 210.597 22.5471C211.257 22.9307 212.003 23.1225 212.835 23.1225C213.644 23.1225 214.38 22.9307 215.04 22.5471C215.722 22.1421 216.255 21.5986 216.639 20.9166C217.022 20.2133 217.214 19.4034 217.214 18.487C217.214 17.5706 217.022 16.7607 216.639 16.0574C216.255 15.354 215.722 14.8106 215.04 14.4269C214.38 14.0433 213.644 13.8515 212.835 13.8515C212.003 13.8515 211.257 14.0433 210.597 14.4269C209.936 14.8106 209.414 15.354 209.03 16.0574C208.647 16.7607 208.455 17.5706 208.455 18.487Z" fill="white"/>
</svg>
